<?xml version="1.0" encoding="UTF-8"?>
<!DOCTYPE svg PUBLIC "-//W3C//DTD SVG 1.1//EN" "http://www.w3.org/Graphics/SVG/1.1/DTD/svg11.dtd">
<!-- Creator: CorelDRAW -->
<svg xmlns="http://www.w3.org/2000/svg" xml:space="preserve" width="1.70666in" height="1.70666in" version="1.1" style="shape-rendering:geometricPrecision; text-rendering:geometricPrecision; image-rendering:optimizeQuality; fill-rule:evenodd; clip-rule:evenodd"
viewBox="0 0 1707 1707"
 xmlns:xlink="http://www.w3.org/1999/xlink">
 <defs>
  <style type="text/css">
   <![CDATA[
    .fil4 {fill:url(#id0)}
    .fil7 {fill:url(#id1)}
    .fil6 {fill:url(#id2)}
    .fil5 {fill:url(#id3)}
    .fil8 {fill:url(#id4)}
    .fil1 {fill:url(#id5)}
    .fil3 {fill:url(#id6)}
    .fil0 {fill:url(#id7)}
    .fil2 {fill:url(#id8)}
    .fil9 {fill:url(#id9)}
   ]]>
  </style>
  <linearGradient id="id0" gradientUnits="userSpaceOnUse" x1="535.094" y1="521.043" x2="1171.24" y2="521.043">
   <stop offset="0" style="stop-opacity:1; stop-color:#737373"/>
   <stop offset="1" style="stop-opacity:1; stop-color:#666666"/>
  </linearGradient>
  <linearGradient id="id1" gradientUnits="userSpaceOnUse" xlink:href="#id0" x1="535.094" y1="1031.21" x2="1171.24" y2="1031.21">
  </linearGradient>
  <linearGradient id="id2" gradientUnits="userSpaceOnUse" xlink:href="#id0" x1="535.094" y1="861.264" x2="1171.24" y2="861.264">
  </linearGradient>
  <linearGradient id="id3" gradientUnits="userSpaceOnUse" xlink:href="#id0" x1="535.094" y1="690.988" x2="1171.24" y2="690.988">
  </linearGradient>
  <linearGradient id="id4" gradientUnits="userSpaceOnUse" x1="656.433" y1="1303.98" x2="1049.89" y2="1303.98">
   <stop offset="0" style="stop-opacity:1; stop-color:#33CC66"/>
   <stop offset="1" style="stop-opacity:1; stop-color:#339966"/>
  </linearGradient>
  <linearGradient id="id5" gradientUnits="userSpaceOnUse" x1="329.437" y1="953.346" x2="1376.57" y2="953.346">
   <stop offset="0" style="stop-opacity:1; stop-color:#E6E6E6"/>
   <stop offset="1" style="stop-opacity:1; stop-color:#CCCCCC"/>
  </linearGradient>
  <linearGradient id="id6" gradientUnits="userSpaceOnUse" xlink:href="#id5" x1="752.65" y1="242.972" x2="953.677" y2="242.972">
  </linearGradient>
  <linearGradient id="id7" gradientUnits="userSpaceOnUse" x1="215.039" y1="953.346" x2="1491.62" y2="953.346">
   <stop offset="0" style="stop-opacity:1; stop-color:#8E4D21"/>
   <stop offset="1" style="stop-opacity:1; stop-color:#663300"/>
  </linearGradient>
  <linearGradient id="id8" gradientUnits="userSpaceOnUse" x1="527.819" y1="228.429" x2="1178.5" y2="228.429">
   <stop offset="0" style="stop-opacity:1; stop-color:#FF9911"/>
   <stop offset="1" style="stop-opacity:1; stop-color:#FF6600"/>
  </linearGradient>
  <linearGradient id="id9" gradientUnits="userSpaceOnUse" xlink:href="#id5" x1="741.327" y1="1304.11" x2="964.339" y2="1304.11">
  </linearGradient>
 </defs>
 <g id="Layer_x0020_1">
  <metadata id="CorelCorpID_0Corel-Layer"/>
  <path class="fil0" d="M1388 1706l-1070 0c-57,0 -103,-46 -103,-102l0 -1301c0,-57 46,-103 103,-103l237 0c14,0 26,12 26,27l0 177 545 0 0 -177c0,-15 12,-27 26,-27l237 0c57,0 103,47 103,103l0 1301c0,56 -47,102 -104,102z"/>
  <path class="fil1" d="M1350 1592l-994 0c-15,0 -27,-12 -27,-27l0 -1223c0,-15 12,-27 27,-27l198 0c15,0 27,12 27,27l0 62 544 0 0 -62c0,-15 12,-27 27,-27l198 0c15,0 27,12 27,27l0 1223c0,15 -12,27 -27,27z"/>
  <path class="fil2" d="M1152 457l-598 0c-14,0 -26,-12 -26,-27l0 -264c0,-15 12,-27 26,-27l136 0c5,-34 21,-65 46,-90 32,-32 73,-49 117,-49 82,0 151,60 163,139l136 0c15,0 27,12 27,27l0 264c0,15 -12,27 -27,27z"/>
  <path class="fil3" d="M853 343c-55,0 -100,-44 -100,-100 0,-56 45,-101 100,-101 56,0 101,45 101,101 0,55 -45,100 -101,100z"/>
  <path class="fil4" d="M1145 547l-583 0c-15,0 -27,-11 -27,-26 0,-15 12,-26 27,-26l583 0c14,0 26,11 26,26 0,15 -12,26 -26,26z"/>
  <path class="fil5" d="M1145 717l-583 0c-15,0 -27,-11 -27,-26 0,-15 12,-26 27,-26l583 0c14,0 26,11 26,26 0,15 -12,26 -26,26z"/>
  <path class="fil6" d="M1145 888l-583 0c-15,0 -27,-12 -27,-27 0,-14 12,-26 27,-26l583 0c14,0 26,12 26,26 0,15 -12,27 -26,27z"/>
  <path class="fil7" d="M1145 1058l-583 0c-15,0 -27,-12 -27,-27 0,-14 12,-26 27,-26l583 0c14,0 26,12 26,26 0,15 -12,27 -26,27z"/>
  <path class="fil8" d="M853 1501c-108,0 -197,-89 -197,-197 0,-108 89,-197 197,-197 109,0 197,89 197,197 0,108 -88,197 -197,197z"/>
  <path class="fil9" d="M819 1390l0 0c-7,0 -14,-2 -19,-7l-51 -51c-10,-10 -10,-27 0,-38 10,-10 27,-10 37,0l32 32 101 -100c11,-11 27,-11 38,0 10,10 10,27 0,37l-120 120c-4,5 -11,7 -18,7z"/>
 </g>
</svg>
